<svg width="24" height="25" viewBox="0 0 24 25" fill="none" xmlns="http://www.w3.org/2000/svg">
<path fill-rule="evenodd" clip-rule="evenodd" d="M7.05033 3.25045C8.36308 1.93769 10.1436 1.2002 12.0001 1.2002C13.8566 1.2002 15.6371 1.93769 16.9498 3.25045C18.2626 4.5632 19.0001 6.34368 19.0001 8.2002C19.0001 11.5529 19.7171 13.6348 20.378 14.8463C20.7098 15.4546 21.0328 15.8537 21.2573 16.0906C21.3698 16.2093 21.4581 16.288 21.5114 16.3324C21.538 16.3546 21.5558 16.3682 21.5635 16.3739C21.5647 16.3748 21.5657 16.3755 21.5664 16.376C21.9249 16.6223 22.0835 17.0727 21.9572 17.49C21.8295 17.9117 21.4407 18.2002 21.0001 18.2002H3.00008C2.55941 18.2002 2.17068 17.9117 2.04299 17.49C1.91664 17.0727 2.07528 16.6223 2.43377 16.376C2.43447 16.3755 2.43542 16.3748 2.43663 16.3739C2.44432 16.3682 2.46218 16.3546 2.4888 16.3324C2.54202 16.288 2.6304 16.2093 2.74288 16.0906C2.9673 15.8537 3.29039 15.4546 3.62218 14.8463C4.28301 13.6348 5.00008 11.5529 5.00008 8.2002C5.00008 6.34368 5.73758 4.5632 7.05033 3.25045ZM2.44388 16.3692C2.44395 16.3691 2.44403 16.369 2.44411 16.369C2.44411 16.369 2.4441 16.369 2.4441 16.369L2.44388 16.3692ZM5.1494 16.2002H18.8507C18.7747 16.0755 18.6983 15.9436 18.6222 15.804C17.783 14.2656 17.0001 11.8475 17.0001 8.2002C17.0001 6.87411 16.4733 5.60234 15.5356 4.66466C14.5979 3.72698 13.3262 3.2002 12.0001 3.2002C10.674 3.2002 9.40222 3.72698 8.46454 4.66466C7.52686 5.60234 7.00008 6.87411 7.00008 8.2002C7.00008 11.8475 6.21714 14.2656 5.37797 15.804C5.30187 15.9436 5.22549 16.0755 5.1494 16.2002Z" fill="currentColor"/>
<path fill-rule="evenodd" clip-rule="evenodd" d="M9.76841 20.3349C10.2461 20.0578 10.8581 20.2204 11.1352 20.6981C11.2231 20.8496 11.3493 20.9754 11.5011 21.0629C11.6529 21.1503 11.825 21.1963 12.0002 21.1963C12.1754 21.1963 12.3475 21.1503 12.4993 21.0629C12.6511 20.9754 12.7773 20.8496 12.8652 20.6981C13.1423 20.2204 13.7542 20.0578 14.232 20.3349C14.7097 20.612 14.8723 21.2239 14.5952 21.7016C14.3315 22.1563 13.9529 22.5336 13.4975 22.7959C13.0421 23.0583 12.5258 23.1963 12.0002 23.1963C11.4746 23.1963 10.9583 23.0583 10.5028 22.7959C10.0474 22.5336 9.6689 22.1563 9.40518 21.7016C9.12806 21.2239 9.29069 20.612 9.76841 20.3349Z" fill="currentColor"/>
</svg>
